:SAMPLES-PER-SECOND 24
:FULLY-SPECIFIED
:DEGREES
564
root  0.0984979 42.0333 6.95683 113.716 37.3305 110.458
RightUpLeg  0.962676 -20.3958 -38.4793
RightLeg  0.34015 -38.8796 0.278829
RightFoot  3.50573 0.983912 -7.38857
RightToes  -1.74623e-010 0 -2.59999e-017
Spine  10.1976 0.783146 0.71208
Spine1  11.9255 9.601 -27.2451
HEad  10.4282 46.7792 -21.8131
LeftShoulder1  1.45601 -1.99441 -20.0181
LeftArm  -1.5926 18.441 -20.2681
LeftForeArm  151.269 -52.9575 -165.283
LeftHand  0.0665434 6.0301 14.8348
RightShoulder  1.91655 4.08793 18.7885
RightArm  11.8507 18.636 49.0414
RightForeArm  154.469 63.6383 158.519
RightHand  -0.125602 -2.18673 -4.19209
LeftUpLeg  -49.5535 32.8294 23.2086
LeftLeg  105.509 1.30306 -4.79289
LeftFoot  1.17576 0.957511 -8.34979
LeftToes  -6.27559e-011 -2.10356e-011 8.24929e-012
565
root  0.626498 42.6137 7.73744 121.372 38.2539 121.156
RightUpLeg  4.33193 -19.6334 -35.0762
RightLeg  5.33516 -43.6922 -1.06344
RightFoot  6.9791 0.601556 -3.43059
RightToes  -1.74623e-010 0 -2.59999e-017
Spine  9.07498 1.02309 0.436048
Spine1  12.2557 8.94799 -24.1835
HEad  17.1267 43.6938 -14.4655
LeftShoulder1  1.4093 -1.90448 -19.5618
LeftArm  -3.32113 19.4301 -19.438
LeftForeArm  152.098 -53.5744 -165.035
LeftHand  0.135166 6.56286 14.9702
RightShoulder  1.83797 3.79847 18.7097
RightArm  7.51733 14.5901 44.0087
RightForeArm  152.273 61.628 159.989
RightHand  -0.107709 -2.85663 -4.34149
LeftUpLeg  -48.0281 30.0552 20.7851
LeftLeg  100.054 -0.9505 3.14133
LeftFoot  -0.0856254 0.454138 -4.60324
LeftToes  -6.27559e-011 -2.10356e-011 8.24929e-012
566
root  0.959797 42.8497 8.27883 129.699 37.7874 132.244
RightUpLeg  6.03112 -19.3691 -31.1281
RightLeg  11.8116 -33.9925 -3.39397
RightFoot  9.93775 0.940126 -4.61655
RightToes  -1.74623e-010 0 -2.59999e-017
Spine  8.04915 0.677036 0.900574
Spine1  12.8102 7.75092 -21.2845
HEad  20.6526 40.3783 -9.99566
LeftShoulder1  1.29731 -1.59321 -18.9061
LeftArm  -5.4858 19.3238 -20.6567
LeftForeArm  151.189 -55.2793 -164.063
LeftHand  0.232178 7.13825 16.433
RightShoulder  1.82764 3.60465 19.2968
RightArm  2.7226 10.0616 38.1729
RightForeArm  149.693 61.5715 159.791
RightHand  -0.108482 -3.09452 -4.80105
LeftUpLeg  -46.3582 25.2985 18.168
LeftLeg  95.5411 -0.0833374 -1.60684
LeftFoot  6.50962 0.953628 -6.32277
LeftToes  -6.27559e-011 -2.10356e-011 8.24929e-012
567
root  1.15522 42.4389 8.79148 137.319 36.2379 141.479
RightUpLeg  5.30179 -16.9407 -26.035
RightLeg  16.6799 -8.79729 -2.3612
RightFoot  9.81083 1.25166 -6.35306
RightToes  -1.74623e-010 0 -2.59999e-017
Spine  7.21333 0.768878 0.550461
Spine1  13.1213 6.77561 -18.6474
HEad  21.1387 36.0495 -7.72759
LeftShoulder1  1.17411 -1.30495 -17.7862
LeftArm  -7.90397 18.282 -24.6012
LeftForeArm  148.907 -58.5955 -161.864
LeftHand  0.231796 7.04739 17.1778
RightShoulder  1.76561 3.44859 18.9532
RightArm  -2.20329 4.29789 33.1642
RightForeArm  144.897 63.4497 157.75
RightHand  -0.139155 -3.01684 -6.17564
LeftUpLeg  -44.0861 20.697 14.855
LeftLeg  91.3846 0.227283 -8.51601
LeftFoot  7.58816 1.30478 -8.13169
LeftToes  -6.27559e-011 -2.10356e-011 8.24929e-012
568
root  1.37111 41.3753 9.34483 143.808 33.0338 148.502
RightUpLeg  4.07292 -8.6449 -21.5297
RightLeg  20.9353 4.34381 1.58641
RightFoot  3.31715 0.713249 -5.25404
RightToes  -1.74623e-010 0 -2.59999e-017
Spine  6.57259 0.990914 -2.37068
Spine1  12.3813 5.32241 -15.1935
HEad  19.8198 31.652 -6.23394
LeftShoulder1  1.0921 -1.34321 -15.7486
LeftArm  -9.80373 17.9667 -29.9644
LeftForeArm  144.997 -62.2026 -158.833
LeftHand  0.26038 7.09127 18.5363
RightShoulder  1.66293 3.44272 17.3776
RightArm  -5.62871 -1.69839 30.0645
RightForeArm  136.65 67.6338 152.331
RightHand  -0.259499 -2.26088 -9.24491
LeftUpLeg  -41.0147 17.3373 10.1702
LeftLeg  87.1118 -0.432334 -9.23921
LeftFoot  4.25128 1.2853 -9.57435
LeftToes  -6.27559e-011 -2.10356e-011 8.24929e-012
569
root  1.47681 40.2733 9.82256 149.703 29.5663 155.247
RightUpLeg  3.39116 -9.93168 -16.7078
RightLeg  22.7871 4.23528 1.7362
RightFoot  -3.2463 0.464883 -6.86618
RightToes  -1.74623e-010 0 -2.59999e-017
Spine  5.52039 0.138365 -2.28717
Spine1  12.5002 3.80312 -12.2566
HEad  16.4926 28.3183 -5.25661
LeftShoulder1  0.989727 -1.13919 -14.4109
LeftArm  -11.6526 16.2992 -32.8731
LeftForeArm  141.508 -64.2537 -156.645
LeftHand  0.429482 7.64778 22.2837
RightShoulder  1.74299 3.67254 17.7532
RightArm  -8.71015 -4.71964 25.9599
RightForeArm  122.444 73.5161 139.508
RightHand  -0.298398 -2.23263 -10.7097
LeftUpLeg  -35.3299 14.9485 6.40336
LeftLeg  80.8143 -0.903722 -4.97235
LeftFoot  2.63383 1.16056 -9.584
LeftToes  -6.27559e-011 -2.10356e-011 8.24929e-012
570
root  1.38872 39.4342 10.3428 154.89 27.2609 160.838
RightUpLeg  0.340952 -15.4406 -11.3153
RightLeg  24.537 -0.452379 -0.446439
RightFoot  -6.67311 0.425459 -11.3255
RightToes  -1.74623e-010 0 -2.59999e-017
Spine  3.62673 -0.920697 1.27088
Spine1  14.9602 3.49364 -12.7938
HEad  12.0267 26.0201 -5.32992
LeftShoulder1  0.909556 -0.464466 -16.171
LeftArm  -13.684 12.3142 -32.4954
LeftForeArm  140.335 -65.9281 -154.765
LeftHand  0.65279 8.49806 24.3216
RightShoulder  1.99303 3.9009 20.5929
RightArm  -12.4018 -5.69984 22.2302
RightForeArm  90.121 79.0025 102.801
RightHand  -0.27502 -2.45057 -10.455
LeftUpLeg  -27.2715 13.7862 3.90063
LeftLeg  72.1561 -0.512152 -0.797131
LeftFoot  1.28907 1.05179 -9.56614
LeftToes  -6.27559e-011 -2.10356e-011 8.24929e-012
571
root  1.21289 39.0818 10.8938 158.844 25.2543 164.447
RightUpLeg  -3.55863 -18.7776 -7.76585
RightLeg  26.3097 -0.811936 -0.664422
RightFoot  -6.4415 0.498749 -12.6004
RightToes  -1.74623e-010 0 -2.59999e-017
Spine  2.35245 -1.18849 3.68
Spine1  16.5582 3.58679 -13.3934
HEad  9.78336 24.3947 -6.46742
LeftShoulder1  1.00209 -0.376341 -19.2643
LeftArm  -13.8645 11.3432 -34.2819
LeftForeArm  141.932 -68.456 -151.825
LeftHand  0.868537 9.75316 23.0976
RightShoulder  2.18213 4.02573 22.8011
RightArm  -15.2 -9.25054 23.4823
RightForeArm  43.5907 75.5234 44.5937
RightHand  -0.309336 -3.04291 -14.8153
LeftUpLeg  -17.4633 14.1904 1.41041
LeftLeg  61.2686 0.551003 1.683
LeftFoot  0.57141 1.06647 -10.2314
LeftToes  -6.27559e-011 -2.10356e-011 8.24929e-012
572
root  1.15903 39.1943 11.4981 161.563 22.0012 166.741
RightUpLeg  -4.74281 -20.9637 -5.88012
RightLeg  24.2618 -1.17958 -0.8524
RightFoot  -4.45253 0.663497 -11.4901
RightToes  -1.74623e-010 0 -2.59999e-017
Spine  2.09199 -0.949278 1.85318
Spine1  16.1232 2.74301 -10.2347
HEad  10.8021 23.3705 -7.42567
LeftShoulder1  1.14117 -0.82185 -19.9047
LeftArm  -10.7143 16.1414 -40.5164
LeftForeArm  143.953 -70.067 -149.756
LeftHand  1.05266 10.5708 23.4618
RightShoulder  2.27627 4.11035 23.7673
RightArm  -16.6771 -15.6597 27.6102
RightForeArm  32.8107 64.819 21.1745
RightHand  0.36611 -7.51659 -19.5899
LeftUpLeg  -6.2603 17.5223 0.318063
LeftLeg  48.7641 1.90905 2.75102
LeftFoot  1.39594 1.16888 -10.5261
LeftToes  -6.27559e-011 -2.10356e-011 8.24929e-012
